<svg width="136" height="130" viewBox="0 0 136 130" fill="none" xmlns="http://www.w3.org/2000/svg">
<g id="Group">
<path id="Vector" d="M67.4429 57.7985C80.5201 57.7985 91.1701 49.3965 91.1701 39.0688V36.2031H43.7271V39.0688C43.7271 49.3965 54.3657 57.7985 67.4542 57.7985H67.4429ZM53.6058 41.9344L56.929 47.4822C57.2352 47.998 58.0065 47.8834 58.1652 47.3103L59.583 41.9458H85.0455C83.2308 47.7459 76.0173 52.0787 67.4315 52.0787C58.8458 52.0787 51.6437 47.7344 49.8176 41.9458H53.5945L53.6058 41.9344Z" fill="white"/>
<path id="Vector_2" d="M135.698 67.472L119.786 39.4348C119.547 39.0107 119.173 38.6782 118.731 38.4834C118.708 38.4719 118.697 38.449 118.674 38.4375L103.124 29.3707C102.399 27.5596 101.537 25.8173 100.55 24.1552L101.854 2.49112C101.968 0.611268 99.9487 -0.626682 98.3609 0.34763L84.3083 8.87573C84.1609 8.96743 84.0361 9.05913 83.9227 9.17376C79.2158 7.00734 73.9872 5.79232 68.4864 5.79232C62.9856 5.79232 57.757 7.00734 53.0501 9.17376C52.9367 9.07059 52.8119 8.96743 52.6645 8.87573L38.6006 0.336168C37.0014 -0.626682 34.9939 0.599805 35.1073 2.47966L36.4116 24.1438C35.5496 25.5881 34.7897 27.0896 34.1319 28.6371L17.3459 38.4261C17.3459 38.4261 17.3119 38.4605 17.2892 38.4719C16.8469 38.6668 16.4726 38.9992 16.2344 39.4233L0.299111 67.472C0.00422206 67.9993 -0.075171 68.6298 0.0722732 69.2143C0.231059 69.7989 0.616683 70.3033 1.13841 70.6013L15.9169 79.1753V98.3979C15.9169 99.418 16.4613 100.369 17.3346 100.885L66.581 129.622C67.0233 129.874 67.511 130 67.9987 130C68.4864 130 68.9741 129.874 69.4164 129.622L118.663 100.885C119.536 100.369 120.081 99.4295 120.081 98.3979V79.1753L134.859 70.6013C135.948 69.9709 136.322 68.5724 135.698 67.472ZM62.4979 12.0852C64.4374 11.707 66.4335 11.5121 68.4751 11.5121C70.0516 11.5121 71.5941 11.6382 73.1139 11.856C81.2574 13.071 88.3914 17.4153 93.3024 23.628C94.5954 25.2671 95.7296 27.0323 96.6936 28.9122C97.4082 30.3221 98.032 31.7778 98.5424 33.3023C99.6312 36.5348 100.221 39.985 100.221 43.5727C100.221 44.9826 100.119 46.3581 99.9487 47.7107L78.9209 59.987L68.0214 66.3487L57.1219 59.987L37.1035 48.3067C36.8766 46.7593 36.7519 45.1775 36.7519 43.5727C36.7519 39.7213 37.4324 36.0304 38.6573 32.6146C39.2244 31.0557 39.9049 29.5541 40.6875 28.1213C41.7763 26.1268 43.0693 24.2699 44.5324 22.562C49.1145 17.2434 55.3866 13.4493 62.4979 12.0738V12.0852ZM15.9169 73.891L5.35758 67.7701L15.9169 49.1779L18.7296 44.2146H18.7523L32.011 51.9633L35.4702 53.9807L39.3265 56.2273L54.2751 64.9503L64.5508 70.9452L62.237 75.0144L60.7626 77.6164L59.2882 80.2069L51.2468 94.3631L21.5878 77.1693L18.7523 75.5302L15.9169 73.891ZM65.1632 122.171L21.5878 96.7473V82.4765L50.9519 99.5097C51.3035 99.7161 51.7004 99.8192 52.0747 99.8192C52.8573 99.8192 53.6286 99.4066 54.0482 98.6615L64.0064 81.1124C64.392 81.1583 64.7776 81.2041 65.1632 81.2385V122.183V122.171ZM114.41 96.7473L70.8342 122.171V79.0721L72.0478 81.2041L81.9492 98.65C82.3689 99.3836 83.1288 99.8078 83.9227 99.8078C84.3083 99.8078 84.6939 99.7046 85.0455 99.4983L114.41 82.465V96.7358V96.7473ZM120.081 73.9025L117.245 75.5416L114.41 77.1808L84.7506 94.3745L76.8227 80.4132L75.3482 77.8112L73.8511 75.1748L71.458 70.9566L81.7337 64.9618L97.9185 55.5167L101.673 53.3273L105.087 51.3328L114.421 45.8882L117.256 44.2376H117.279L120.092 49.1894L130.651 67.7815L120.092 73.9025H120.081Z" fill="white"/>
</g>
</svg>
